# xmcd
# 
# Track frame offsets:
#     150
#     21800
#     41572
#     54872
#     70202
#     92937
#     114550
#     133405
#     154935
#     170632
#     187792
# 
# Disc length: 2745
# 
# Revision: 0
# Processed by: cddbd v1.5.2PL0 Copyright (c) Steve Scherf et al.
# Submitted via: fre:ac v1.0.31
# 
DISCID=940ab70b
DTITLE=林子祥 - 創作+流行歌集
DYEAR=1988
DGENRE=
TTITLE0=每夜唱不停
TTITLE1=雨點
TTITLE2=昨日街頭
TTITLE3=幻覺
TTITLE4=Talking About
TTITLE5=深夜裏
TTITLE6=剌激
TTITLE7=結伴同航
TTITLE8=從前日後與這天
TTITLE9=內疚
TTITLE10=終於勝利
EXTD=WEA Records
EXTT0=
EXTT1=
EXTT2=
EXTT3=
EXTT4=
EXTT5=
EXTT6=
EXTT7=
EXTT8=
EXTT9=
EXTT10=
PLAYORDER=
